<!-- Generator: Adobe Illustrator 19.0.0, SVG Export Plug-In  -->
<svg version="1.1"
	 xmlns="http://www.w3.org/2000/svg" xmlns:xlink="http://www.w3.org/1999/xlink" xmlns:a="http://ns.adobe.com/AdobeSVGViewerExtensions/3.0/"
	 x="0px" y="0px" width="452.109px" height="457.914px" viewBox="0 0 452.109 457.914"
	 style="enable-background:new 0 0 452.109 457.914;" xml:space="preserve">
<style type="text/css">
	.st0{fill:#5D5D5D;}
</style>
<defs>
</defs>
<g>
	<path class="st0" d="M446.538,399.066l-17.134-17.375l-0.048,0.037l-4.896-4.887l-93.923-93.913
		c20.378-29.816,31.283-64.461,31.55-100.528C362.827,82.574,282.213,0.751,182.39,0.003L181.023,0
		C81.951,0,0.744,80.613,0.005,179.706c-0.363,48.353,18.126,93.953,52.066,128.398c33.94,34.448,79.258,53.615,127.632,53.976
		l1.367,0.005c33.656,0,66.355-9.28,94.866-26.886l93.939,93.982l5.488,5.58v0.006l4.146,4.055l0.307,0.275l12.857,13.012
		c3.733,3.798,8.937,5.804,15.007,5.804c9.774,0,20.951-5.265,29.901-14.092C452.67,428.945,456.61,409.285,446.538,399.066z
		 M183.807,320.117c-76.9,0-139.241-62.34-139.241-139.241c0-76.9,62.34-139.24,139.241-139.24s139.24,62.34,139.24,139.24
		C323.047,257.776,260.707,320.117,183.807,320.117z"/>
</g>
</svg>